<?xml version="1.0" standalone="no"?>
<!DOCTYPE svg PUBLIC "-//W3C//DTD SVG 20010904//EN"
 "http://www.w3.org/TR/2001/REC-SVG-20010904/DTD/svg10.dtd">
<svg version="1.0" xmlns="http://www.w3.org/2000/svg"
 width="175.000000pt" height="45.000000pt" viewBox="0 0 175.000000 45.000000"
 preserveAspectRatio="xMidYMid meet">

<g transform="translate(0.000000,45.000000) scale(0.100000,-0.100000)"
fill="#000000" stroke="none">
<path d="M544 427 c-2 -7 -3 -71 -2 -141 l3 -128 65 0 c46 0 65 3 65 13 0 8
-15 13 -45 13 l-45 1 -3 128 c-2 105 -5 127 -18 127 -8 0 -17 -6 -20 -13z"/>
<path d="M1682 338 c2 -84 6 -103 18 -103 12 0 16 19 18 103 3 97 2 102 -18
102 -20 0 -21 -5 -18 -102z"/>
<path d="M170 325 c0 -78 3 -95 15 -95 10 0 15 -10 15 -27 l0 -27 28 27 c27
26 33 27 130 27 l102 0 0 95 0 95 -145 0 -145 0 0 -95z m280 0 l0 -75 -104 0
c-58 0 -108 -4 -111 -10 -4 -6 -13 -5 -25 3 -17 10 -20 23 -20 84 l0 73 130 0
130 0 0 -75z"/>
<path d="M50 271 c0 -123 1 -129 21 -134 18 -5 21 -12 17 -41 -2 -20 -1 -36 2
-36 3 0 24 18 45 40 l39 40 143 0 143 0 0 40 0 40 -102 0 -103 0 -28 -35 c-15
-19 -31 -35 -35 -35 -4 0 -9 15 -10 32 -2 18 -7 37 -12 42 -6 6 -10 47 -10 93
l0 83 -55 0 -55 0 0 -129z"/>
<path d="M758 364 c-37 -19 -48 -43 -48 -101 1 -92 87 -145 153 -93 l25 20 5
-21 c3 -12 12 -19 19 -17 9 3 14 35 16 116 2 96 0 112 -13 112 -9 0 -18 -7
-21 -15 -5 -13 -9 -13 -34 0 -36 19 -67 18 -102 -1z m107 -39 c47 -46 25 -126
-37 -141 -22 -5 -33 0 -58 24 -33 34 -37 59 -15 102 23 45 74 52 110 15z"/>
<path d="M990 215 c0 -158 1 -165 20 -165 18 0 20 7 20 71 l0 70 26 -20 c67
-53 156 1 156 94 0 54 -14 80 -52 100 -37 19 -63 19 -100 0 -25 -13 -29 -13
-34 0 -3 8 -12 15 -21 15 -13 0 -15 -23 -15 -165z m138 129 c25 -7 52 -51 52
-84 0 -12 -14 -35 -30 -52 -25 -24 -36 -29 -58 -24 -62 15 -84 95 -37 141 25
26 35 29 73 19z"/>
<path d="M1315 371 c-51 -21 -78 -96 -56 -153 27 -71 131 -87 184 -28 21 24
27 40 27 76 0 39 -5 51 -34 80 -35 35 -75 43 -121 25z m91 -45 c56 -48 25
-139 -47 -139 -67 0 -97 100 -43 142 35 27 57 26 90 -3z"/>
<path d="M1522 268 c2 -93 6 -113 18 -113 12 0 16 18 20 83 5 85 14 102 53
102 10 0 17 8 17 20 0 24 -17 26 -47 5 -19 -13 -22 -13 -27 0 -3 8 -12 15 -21
15 -13 0 -15 -16 -13 -112z"/>
<path d="M1680 181 c0 -26 17 -36 35 -21 18 15 8 40 -16 40 -12 0 -19 -7 -19
-19z"/>
<path d="M1080 76 c0 -22 5 -36 13 -36 39 1 47 63 9 68 -19 3 -22 -1 -22 -32z
m30 14 c0 -5 -4 -10 -10 -10 -5 0 -10 5 -10 10 0 6 5 10 10 10 6 0 10 -4 10
-10z m7 -26 c-3 -3 -12 -4 -19 -1 -8 3 -5 6 6 6 11 1 17 -2 13 -5z"/>
<path d="M1214 80 c1 -25 6 -36 19 -38 9 -2 17 1 17 7 0 6 -6 11 -14 11 -8 0
-17 12 -19 28 -4 20 -4 18 -3 -8z"/>
<path d="M1613 83 c0 -20 5 -29 17 -29 12 0 17 9 17 29 0 18 -3 23 -9 15 -6
-11 -10 -11 -16 0 -6 8 -9 3 -9 -15z"/>
<path d="M1143 63 c2 -41 12 -42 26 -2 9 26 9 29 -3 20 -11 -9 -15 -9 -19 1
-3 7 -4 -2 -4 -19z"/>
<path d="M1262 68 c2 -12 9 -23 16 -24 7 -1 8 0 2 3 -16 8 -12 36 5 29 8 -3
15 -1 15 4 0 6 -9 10 -21 10 -15 0 -20 -5 -17 -22z"/>
<path d="M1326 82 c6 -4 14 -14 17 -22 4 -10 6 -8 6 8 1 15 -5 22 -16 22 -11
0 -14 -3 -7 -8z"/>
<path d="M1370 70 c0 -11 2 -20 4 -20 2 0 6 9 9 20 3 11 1 20 -4 20 -5 0 -9
-9 -9 -20z"/>
<path d="M1400 68 c1 -21 2 -21 11 -5 5 9 14 17 19 17 5 0 11 -8 13 -17 4 -14
5 -12 6 5 1 17 -4 22 -24 22 -19 0 -25 -5 -25 -22z"/>
<path d="M1462 70 c0 -14 2 -19 5 -12 2 6 2 18 0 25 -3 6 -5 1 -5 -13z"/>
<path d="M1491 68 c1 -17 2 -19 6 -5 2 9 8 17 13 17 5 0 11 -8 13 -17 4 -14 5
-12 6 5 1 16 -5 22 -19 22 -14 0 -20 -6 -19 -22z"/>
<path d="M1545 80 c-9 -14 3 -30 23 -31 14 0 13 -2 -3 -9 -19 -8 -19 -9 3 -9
18 -1 22 4 22 29 0 23 -5 30 -19 30 -11 0 -23 -4 -26 -10z m35 -10 c0 -5 -4
-10 -10 -10 -5 0 -10 5 -10 10 0 6 5 10 10 10 6 0 10 -4 10 -10z"/>
<path d="M1310 61 c0 -6 4 -12 8 -15 5 -3 9 1 9 9 0 8 -4 15 -9 15 -4 0 -8 -4
-8 -9z"/>
</g>
</svg>
